<?xml version="1.0" encoding="utf-8"?>
<!-- Generator: Adobe Illustrator 22.0.1, SVG Export Plug-In . SVG Version: 6.00 Build 0)  -->
<svg version="1.1" id="Layer_1" xmlns="http://www.w3.org/2000/svg" xmlns:xlink="http://www.w3.org/1999/xlink" x="0px" y="0px"
	 viewBox="0 0 169.3 170.8" style="enable-background:new 0 0 169.3 170.8;" xml:space="preserve">
<style type="text/css">
	.st0{fill:#38CCF5;}
	.st1{display:none;}
	.st2{display:inline;}
	.st3{display:inline;clip-path:url(#SVGID_2_);}
	.st4{opacity:0.5;fill:#FF6E4E;enable-background:new    ;}
</style>
<circle class="st0" cx="10" cy="8.3" r="5.2"/>
<circle class="st0" cx="39.8" cy="8.3" r="5.2"/>
<circle class="st0" cx="70" cy="8.3" r="5.2"/>
<circle class="st0" cx="100.3" cy="8.3" r="5.2"/>
<circle class="st0" cx="129.8" cy="8.3" r="5.2"/>
<circle class="st0" cx="160.1" cy="8.3" r="5.2"/>
<circle class="st0" cx="129.8" cy="38.3" r="5.2"/>
<circle class="st0" cx="100.3" cy="38.3" r="5.2"/>
<circle class="st0" cx="70" cy="38.3" r="5.2"/>
<circle class="st0" cx="39.8" cy="38.3" r="5.2"/>
<circle class="st0" cx="10" cy="38.3" r="5.2"/>
<circle class="st0" cx="10" cy="68.3" r="5.2"/>
<circle class="st0" cx="39.8" cy="68.3" r="5.2"/>
<circle class="st0" cx="70" cy="68.3" r="5.2"/>
<circle class="st0" cx="100.3" cy="68.3" r="5.2"/>
<circle class="st0" cx="129.8" cy="68.3" r="5.2"/>
<circle class="st0" cx="129.8" cy="98.3" r="5.2"/>
<circle class="st0" cx="100.3" cy="98.3" r="5.2"/>
<circle class="st0" cx="70" cy="98.3" r="5.2"/>
<circle class="st0" cx="39.8" cy="98.3" r="5.2"/>
<circle class="st0" cx="10" cy="98.3" r="5.2"/>
<circle class="st0" cx="10" cy="128.3" r="5.2"/>
<circle class="st0" cx="39.8" cy="128.3" r="5.2"/>
<circle class="st0" cx="70" cy="128.3" r="5.2"/>
<circle class="st0" cx="100.3" cy="128.3" r="5.2"/>
<circle class="st0" cx="129.8" cy="128.3" r="5.2"/>
<circle class="st0" cx="10" cy="158.6" r="5.2"/>
<circle class="st0" cx="39.8" cy="158.6" r="5.2"/>
<circle class="st0" cx="70" cy="158.6" r="5.2"/>
<circle class="st0" cx="100.3" cy="158.6" r="5.2"/>
<circle class="st0" cx="129.8" cy="158.6" r="5.2"/>
<circle class="st0" cx="159.5" cy="37.8" r="5.2"/>
<circle class="st0" cx="159.5" cy="67.8" r="5.2"/>
<circle class="st0" cx="159.5" cy="97.8" r="5.2"/>
<circle class="st0" cx="159.5" cy="127.8" r="5.2"/>
<circle class="st0" cx="159.5" cy="158.1" r="5.2"/>
<g class="st1">
	<defs>
		<rect id="SVGID_1_" x="34.8" y="3.4" width="140" height="141"/>
	</defs>
	<clipPath id="SVGID_2_" class="st2">
		<use xlink:href="#SVGID_1_"  style="overflow:visible;"/>
	</clipPath>
	<g class="st3">
		<g transform="translate(-158 -154)">
			<circle class="st4" cx="197.8" cy="162.4" r="5"/>
		</g>
		<g transform="translate(-128 -154)">
			<circle class="st4" cx="197.8" cy="162.4" r="5"/>
		</g>
		<g transform="translate(-98 -154)">
			<circle class="st4" cx="197.8" cy="162.4" r="5"/>
		</g>
		<g transform="translate(-68 -154)">
			<circle class="st4" cx="197.8" cy="162.4" r="5"/>
		</g>
		<g transform="translate(-38 -154)">
			<circle class="st4" cx="197.8" cy="162.4" r="5"/>
		</g>
		<g transform="translate(-158 -124)">
			<circle class="st4" cx="197.8" cy="162.4" r="5"/>
		</g>
		<g transform="translate(-128 -124)">
			<circle class="st4" cx="197.8" cy="162.4" r="5"/>
		</g>
		<g transform="translate(-98 -124)">
			<circle class="st4" cx="197.8" cy="162.4" r="5"/>
		</g>
		<g transform="translate(-68 -124)">
			<circle class="st4" cx="197.8" cy="162.4" r="5"/>
		</g>
		<g transform="translate(-38 -124)">
			<circle class="st4" cx="197.8" cy="162.4" r="5"/>
		</g>
		<g transform="translate(-158 -94)">
			<circle class="st4" cx="197.8" cy="162.4" r="5"/>
		</g>
		<g transform="translate(-128 -94)">
			<circle class="st4" cx="197.8" cy="162.4" r="5"/>
		</g>
		<g transform="translate(-98 -94)">
			<circle class="st4" cx="197.8" cy="162.4" r="5"/>
		</g>
		<g transform="translate(-68 -94)">
			<circle class="st4" cx="197.8" cy="162.4" r="5"/>
		</g>
		<g transform="translate(-38 -94)">
			<circle class="st4" cx="197.8" cy="162.4" r="5"/>
		</g>
		<g transform="translate(-158 -64)">
			<circle class="st4" cx="197.8" cy="162.4" r="5"/>
		</g>
		<g transform="translate(-128 -64)">
			<circle class="st4" cx="197.8" cy="162.4" r="5"/>
		</g>
		<g transform="translate(-98 -64)">
			<circle class="st4" cx="197.8" cy="162.4" r="5"/>
		</g>
		<g transform="translate(-68 -64)">
			<circle class="st4" cx="197.8" cy="162.4" r="5"/>
		</g>
		<g transform="translate(-38 -64)">
			<circle class="st4" cx="197.8" cy="162.4" r="5"/>
		</g>
		<g transform="translate(-158 -34)">
			<circle class="st4" cx="197.8" cy="162.4" r="5"/>
		</g>
		<g transform="translate(-128 -34)">
			<circle class="st4" cx="197.8" cy="162.4" r="5"/>
		</g>
		<g transform="translate(-98 -34)">
			<circle class="st4" cx="197.8" cy="162.4" r="5"/>
		</g>
		<g transform="translate(-68 -34)">
			<circle class="st4" cx="197.8" cy="162.4" r="5"/>
		</g>
		<g transform="translate(-38 -34)">
			<circle class="st4" cx="197.8" cy="162.4" r="5"/>
		</g>
	</g>
</g>
</svg>
