<?xml version="1.0" encoding="utf-8"?>
<!-- Generator: Adobe Illustrator 22.0.1, SVG Export Plug-In . SVG Version: 6.00 Build 0)  -->
<svg version="1.1" id="Layer_1" xmlns="http://www.w3.org/2000/svg" xmlns:xlink="http://www.w3.org/1999/xlink" x="0px" y="0px"
	 viewBox="0 0 140 141" style="enable-background:new 0 0 140 141;" xml:space="preserve">
<style type="text/css">
	.st0{clip-path:url(#SVGID_2_);}
	.st1{opacity:0.5;fill:#FF6E4E;enable-background:new    ;}
</style>
<g>
	<defs>
		<rect id="SVGID_1_" width="140" height="141"/>
	</defs>
	<clipPath id="SVGID_2_">
		<use xlink:href="#SVGID_1_"  style="overflow:visible;"/>
	</clipPath>
	<g class="st0">
		<g transform="translate(-158 -154)">
			<circle class="st1" cx="163" cy="159" r="5"/>
		</g>
		<g transform="translate(-128 -154)">
			<circle class="st1" cx="163" cy="159" r="5"/>
		</g>
		<g transform="translate(-98 -154)">
			<circle class="st1" cx="163" cy="159" r="5"/>
		</g>
		<g transform="translate(-68 -154)">
			<circle class="st1" cx="163" cy="159" r="5"/>
		</g>
		<g transform="translate(-38 -154)">
			<circle class="st1" cx="163" cy="159" r="5"/>
		</g>
		<g transform="translate(-158 -124)">
			<circle class="st1" cx="163" cy="159" r="5"/>
		</g>
		<g transform="translate(-128 -124)">
			<circle class="st1" cx="163" cy="159" r="5"/>
		</g>
		<g transform="translate(-98 -124)">
			<circle class="st1" cx="163" cy="159" r="5"/>
		</g>
		<g transform="translate(-68 -124)">
			<circle class="st1" cx="163" cy="159" r="5"/>
		</g>
		<g transform="translate(-38 -124)">
			<circle class="st1" cx="163" cy="159" r="5"/>
		</g>
		<g transform="translate(-158 -94)">
			<circle class="st1" cx="163" cy="159" r="5"/>
		</g>
		<g transform="translate(-128 -94)">
			<circle class="st1" cx="163" cy="159" r="5"/>
		</g>
		<g transform="translate(-98 -94)">
			<circle class="st1" cx="163" cy="159" r="5"/>
		</g>
		<g transform="translate(-68 -94)">
			<circle class="st1" cx="163" cy="159" r="5"/>
		</g>
		<g transform="translate(-38 -94)">
			<circle class="st1" cx="163" cy="159" r="5"/>
		</g>
		<g transform="translate(-158 -64)">
			<circle class="st1" cx="163" cy="159" r="5"/>
		</g>
		<g transform="translate(-128 -64)">
			<circle class="st1" cx="163" cy="159" r="5"/>
		</g>
		<g transform="translate(-98 -64)">
			<circle class="st1" cx="163" cy="159" r="5"/>
		</g>
		<g transform="translate(-68 -64)">
			<circle class="st1" cx="163" cy="159" r="5"/>
		</g>
		<g transform="translate(-38 -64)">
			<circle class="st1" cx="163" cy="159" r="5"/>
		</g>
		<g transform="translate(-158 -34)">
			<circle class="st1" cx="163" cy="159" r="5"/>
		</g>
		<g transform="translate(-128 -34)">
			<circle class="st1" cx="163" cy="159" r="5"/>
		</g>
		<g transform="translate(-98 -34)">
			<circle class="st1" cx="163" cy="159" r="5"/>
		</g>
		<g transform="translate(-68 -34)">
			<circle class="st1" cx="163" cy="159" r="5"/>
		</g>
		<g transform="translate(-38 -34)">
			<circle class="st1" cx="163" cy="159" r="5"/>
		</g>
	</g>
</g>
</svg>
